<svg width="100" height="100" viewBox="0 0 100 100" fill="none" xmlns="http://www.w3.org/2000/svg">
<circle cx="50" cy="50" r="50" fill="#D9D9D9" fill-opacity="0.6"/>
<circle cx="50" cy="50" r="40" fill="#D9D9D9" fill-opacity="0.62"/>
<path d="M82 51C82 68.75 67.625 83 50 83C32.25 83 18 68.75 18 51C18 33.375 32.25 19 50 19C67.625 19 82 33.375 82 51ZM40 40V62C40 63.125 40.5 64.125 41.5 64.625C42.375 65.25 43.625 65.125 44.5 64.625L62.5 53.625C63.375 53.125 64 52.125 64 51C64 50 63.375 49 62.5 48.5L44.5 37.5C43.625 36.875 42.375 36.875 41.5 37.5C40.5 38 40 39 40 40Z" fill="#EF0D36"/>
</svg>
