<svg width="170" height="40" viewBox="0 0 170 40" fill="none" xmlns="http://www.w3.org/2000/svg">
<rect width="170" height="40" fill="#606363" fill-opacity="0.7"/>
<path d="M11.9623 25L8.68628 15.2H10.1283L13.1383 24.244H12.4103L15.5323 15.2H16.8203L19.8723 24.244H19.1723L22.2243 15.2H23.5543L20.2783 25H18.8083L15.9523 16.614H16.3303L13.4603 25H11.9623ZM29.1163 25V23.432L29.0463 23.138V20.464C29.0463 19.8947 28.8783 19.456 28.5423 19.148C28.2157 18.8307 27.721 18.672 27.0583 18.672C26.6197 18.672 26.1903 18.7467 25.7703 18.896C25.3503 19.036 24.9957 19.2273 24.7063 19.47L24.1463 18.462C24.529 18.154 24.9863 17.9207 25.5183 17.762C26.0597 17.594 26.6243 17.51 27.2123 17.51C28.2297 17.51 29.0137 17.7573 29.5643 18.252C30.115 18.7467 30.3903 19.5027 30.3903 20.52V25H29.1163ZM26.6803 25.084C26.1297 25.084 25.6443 24.9907 25.2243 24.804C24.8137 24.6173 24.4963 24.3607 24.2723 24.034C24.0483 23.698 23.9363 23.32 23.9363 22.9C23.9363 22.4987 24.0297 22.1347 24.2163 21.808C24.4123 21.4813 24.725 21.22 25.1543 21.024C25.593 20.828 26.181 20.73 26.9183 20.73H29.2703V21.696H26.9743C26.3023 21.696 25.8497 21.808 25.6163 22.032C25.383 22.256 25.2663 22.5267 25.2663 22.844C25.2663 23.208 25.411 23.502 25.7003 23.726C25.9897 23.9407 26.391 24.048 26.9043 24.048C27.4083 24.048 27.847 23.936 28.2203 23.712C28.603 23.488 28.8783 23.1613 29.0463 22.732L29.3123 23.656C29.135 24.0947 28.8223 24.4447 28.3743 24.706C27.9263 24.958 27.3617 25.084 26.6803 25.084ZM35.4255 25.084C34.6788 25.084 34.1002 24.8833 33.6895 24.482C33.2788 24.0807 33.0735 23.5067 33.0735 22.76V15.956H34.4175V22.704C34.4175 23.1053 34.5155 23.4133 34.7115 23.628C34.9168 23.8427 35.2062 23.95 35.5795 23.95C35.9995 23.95 36.3495 23.8333 36.6295 23.6L37.0495 24.566C36.8442 24.7433 36.5968 24.874 36.3075 24.958C36.0275 25.042 35.7335 25.084 35.4255 25.084ZM31.8135 18.686V17.58H36.5455V18.686H31.8135ZM41.6623 25.084C40.9063 25.084 40.2296 24.9207 39.6323 24.594C39.0443 24.2673 38.5823 23.8193 38.2463 23.25C37.9103 22.6807 37.7423 22.0273 37.7423 21.29C37.7423 20.5527 37.9103 19.8993 38.2463 19.33C38.5823 18.7607 39.0443 18.3173 39.6323 18C40.2296 17.6733 40.9063 17.51 41.6623 17.51C42.3343 17.51 42.9316 17.6453 43.4543 17.916C43.9863 18.1773 44.397 18.5693 44.6863 19.092L43.6643 19.75C43.4216 19.386 43.123 19.12 42.7683 18.952C42.423 18.7747 42.0496 18.686 41.6483 18.686C41.163 18.686 40.729 18.7933 40.3463 19.008C39.9636 19.2227 39.6603 19.526 39.4363 19.918C39.2123 20.3007 39.1003 20.758 39.1003 21.29C39.1003 21.822 39.2123 22.284 39.4363 22.676C39.6603 23.068 39.9636 23.3713 40.3463 23.586C40.729 23.8007 41.163 23.908 41.6483 23.908C42.0496 23.908 42.423 23.824 42.7683 23.656C43.123 23.4787 43.4216 23.208 43.6643 22.844L44.6863 23.488C44.397 24.0013 43.9863 24.398 43.4543 24.678C42.9316 24.9487 42.3343 25.084 41.6623 25.084ZM50.2926 17.51C50.8993 17.51 51.4313 17.6267 51.8886 17.86C52.3553 18.0933 52.7193 18.448 52.9806 18.924C53.242 19.4 53.3726 20.002 53.3726 20.73V25H52.0286V20.884C52.0286 20.1653 51.8513 19.624 51.4966 19.26C51.1513 18.896 50.6613 18.714 50.0266 18.714C49.5506 18.714 49.1353 18.8073 48.7806 18.994C48.426 19.1807 48.1506 19.456 47.9546 19.82C47.768 20.184 47.6746 20.6367 47.6746 21.178V25H46.3306V14.612H47.6746V19.582L47.4086 19.05C47.6513 18.5647 48.0246 18.1867 48.5286 17.916C49.0326 17.6453 49.6206 17.51 50.2926 17.51ZM62.7977 25.084C62.051 25.084 61.3884 24.9207 60.8097 24.594C60.231 24.2673 59.7737 23.8193 59.4377 23.25C59.1017 22.6713 58.9337 22.018 58.9337 21.29C58.9337 20.5527 59.1017 19.8993 59.4377 19.33C59.7737 18.7607 60.231 18.3173 60.8097 18C61.3884 17.6733 62.051 17.51 62.7977 17.51C63.535 17.51 64.193 17.6733 64.7717 18C65.3597 18.3173 65.817 18.7607 66.1437 19.33C66.4797 19.89 66.6477 20.5433 66.6477 21.29C66.6477 22.0273 66.4797 22.6807 66.1437 23.25C65.817 23.8193 65.3597 24.2673 64.7717 24.594C64.193 24.9207 63.535 25.084 62.7977 25.084ZM62.7977 23.908C63.2737 23.908 63.6984 23.8007 64.0717 23.586C64.4544 23.3713 64.753 23.068 64.9677 22.676C65.1824 22.2747 65.2897 21.8127 65.2897 21.29C65.2897 20.758 65.1824 20.3007 64.9677 19.918C64.753 19.526 64.4544 19.2227 64.0717 19.008C63.6984 18.7933 63.2737 18.686 62.7977 18.686C62.3217 18.686 61.897 18.7933 61.5237 19.008C61.1504 19.2227 60.8517 19.526 60.6277 19.918C60.4037 20.3007 60.2917 20.758 60.2917 21.29C60.2917 21.8127 60.4037 22.2747 60.6277 22.676C60.8517 23.068 61.1504 23.3713 61.5237 23.586C61.897 23.8007 62.3217 23.908 62.7977 23.908ZM72.4684 17.51C73.0751 17.51 73.6071 17.6267 74.0644 17.86C74.5311 18.0933 74.8951 18.448 75.1564 18.924C75.4178 19.4 75.5484 20.002 75.5484 20.73V25H74.2044V20.884C74.2044 20.1653 74.0271 19.624 73.6724 19.26C73.3271 18.896 72.8371 18.714 72.2024 18.714C71.7264 18.714 71.3111 18.8073 70.9564 18.994C70.6018 19.1807 70.3264 19.456 70.1304 19.82C69.9438 20.184 69.8504 20.6367 69.8504 21.178V25H68.5064V17.58H69.7944V19.582L69.5844 19.05C69.8271 18.5647 70.2004 18.1867 70.7044 17.916C71.2084 17.6453 71.7964 17.51 72.4684 17.51Z" fill="white"/>
<path d="M100.137 16.168C99.9727 15.5117 99.4531 14.9922 98.8242 14.8281C97.6484 14.5 93 14.5 93 14.5C93 14.5 88.3242 14.5 87.1484 14.8281C86.5195 14.9922 86 15.5117 85.8359 16.168C85.5078 17.3164 85.5078 19.7773 85.5078 19.7773C85.5078 19.7773 85.5078 22.2109 85.8359 23.3867C86 24.043 86.5195 24.5352 87.1484 24.6992C88.3242 25 93 25 93 25C93 25 97.6484 25 98.8242 24.6992C99.4531 24.5352 99.9727 24.043 100.137 23.3867C100.465 22.2109 100.465 19.7773 100.465 19.7773C100.465 19.7773 100.465 17.3164 100.137 16.168ZM91.4688 21.9922V17.5625L95.3516 19.7773L91.4688 21.9922Z" fill="white"/>
<path d="M104.901 25V21.248L105.223 22.116L101.009 15.2H102.507L106.049 21.038H105.237L108.793 15.2H110.179L105.979 22.116L106.287 21.248V25H104.901ZM113.748 25.084C113.001 25.084 112.339 24.9207 111.76 24.594C111.181 24.2673 110.724 23.8193 110.388 23.25C110.052 22.6713 109.884 22.018 109.884 21.29C109.884 20.5527 110.052 19.8993 110.388 19.33C110.724 18.7607 111.181 18.3173 111.76 18C112.339 17.6733 113.001 17.51 113.748 17.51C114.485 17.51 115.143 17.6733 115.722 18C116.31 18.3173 116.767 18.7607 117.094 19.33C117.43 19.89 117.598 20.5433 117.598 21.29C117.598 22.0273 117.43 22.6807 117.094 23.25C116.767 23.8193 116.31 24.2673 115.722 24.594C115.143 24.9207 114.485 25.084 113.748 25.084ZM113.748 23.908C114.224 23.908 114.649 23.8007 115.022 23.586C115.405 23.3713 115.703 23.068 115.918 22.676C116.133 22.2747 116.24 21.8127 116.24 21.29C116.24 20.758 116.133 20.3007 115.918 19.918C115.703 19.526 115.405 19.2227 115.022 19.008C114.649 18.7933 114.224 18.686 113.748 18.686C113.272 18.686 112.847 18.7933 112.474 19.008C112.101 19.2227 111.802 19.526 111.578 19.918C111.354 20.3007 111.242 20.758 111.242 21.29C111.242 21.8127 111.354 22.2747 111.578 22.676C111.802 23.068 112.101 23.3713 112.474 23.586C112.847 23.8007 113.272 23.908 113.748 23.908ZM122.579 25.084C121.944 25.084 121.384 24.9673 120.899 24.734C120.423 24.5007 120.049 24.146 119.779 23.67C119.517 23.1847 119.387 22.578 119.387 21.85V17.58H120.731V21.696C120.731 22.424 120.903 22.97 121.249 23.334C121.603 23.698 122.098 23.88 122.733 23.88C123.199 23.88 123.605 23.7867 123.951 23.6C124.296 23.404 124.562 23.124 124.749 22.76C124.935 22.3867 125.029 21.9387 125.029 21.416V17.58H126.373V25H125.099V22.998L125.309 23.53C125.066 24.0247 124.702 24.4073 124.217 24.678C123.731 24.9487 123.185 25.084 122.579 25.084ZM129.897 25V16.418H126.537V15.2H134.643V16.418H131.283V25H129.897ZM138.385 25.084C137.638 25.084 136.975 24.9207 136.397 24.594C135.818 24.2673 135.361 23.8193 135.025 23.25C134.689 22.6713 134.521 22.018 134.521 21.29C134.521 20.5527 134.689 19.8993 135.025 19.33C135.361 18.7607 135.818 18.3173 136.397 18C136.975 17.6733 137.638 17.51 138.385 17.51C139.122 17.51 139.78 17.6733 140.359 18C140.947 18.3173 141.404 18.7607 141.731 19.33C142.067 19.89 142.235 20.5433 142.235 21.29C142.235 22.0273 142.067 22.6807 141.731 23.25C141.404 23.8193 140.947 24.2673 140.359 24.594C139.78 24.9207 139.122 25.084 138.385 25.084ZM138.385 23.908C138.861 23.908 139.285 23.8007 139.659 23.586C140.041 23.3713 140.34 23.068 140.555 22.676C140.769 22.2747 140.877 21.8127 140.877 21.29C140.877 20.758 140.769 20.3007 140.555 19.918C140.34 19.526 140.041 19.2227 139.659 19.008C139.285 18.7933 138.861 18.686 138.385 18.686C137.909 18.686 137.484 18.7933 137.111 19.008C136.737 19.2227 136.439 19.526 136.215 19.918C135.991 20.3007 135.879 20.758 135.879 21.29C135.879 21.8127 135.991 22.2747 136.215 22.676C136.439 23.068 136.737 23.3713 137.111 23.586C137.484 23.8007 137.909 23.908 138.385 23.908ZM148.027 25.084C147.393 25.084 146.819 24.944 146.305 24.664C145.801 24.3747 145.4 23.95 145.101 23.39C144.812 22.83 144.667 22.13 144.667 21.29C144.667 20.45 144.817 19.75 145.115 19.19C145.423 18.63 145.829 18.21 146.333 17.93C146.847 17.65 147.411 17.51 148.027 17.51C148.755 17.51 149.399 17.6687 149.959 17.986C150.519 18.3033 150.963 18.7467 151.289 19.316C151.616 19.876 151.779 20.534 151.779 21.29C151.779 22.046 151.616 22.7087 151.289 23.278C150.963 23.8473 150.519 24.2907 149.959 24.608C149.399 24.9253 148.755 25.084 148.027 25.084ZM144.093 25V14.612H145.437V19.554L145.297 21.276L145.381 22.998V25H144.093ZM147.915 23.908C148.391 23.908 148.816 23.8007 149.189 23.586C149.572 23.3713 149.871 23.068 150.085 22.676C150.309 22.2747 150.421 21.8127 150.421 21.29C150.421 20.758 150.309 20.3007 150.085 19.918C149.871 19.526 149.572 19.2227 149.189 19.008C148.816 18.7933 148.391 18.686 147.915 18.686C147.449 18.686 147.024 18.7933 146.641 19.008C146.268 19.2227 145.969 19.526 145.745 19.918C145.531 20.3007 145.423 20.758 145.423 21.29C145.423 21.8127 145.531 22.2747 145.745 22.676C145.969 23.068 146.268 23.3713 146.641 23.586C147.024 23.8007 147.449 23.908 147.915 23.908ZM156.94 25.084C156.147 25.084 155.447 24.9207 154.84 24.594C154.243 24.2673 153.776 23.8193 153.44 23.25C153.114 22.6807 152.95 22.0273 152.95 21.29C152.95 20.5527 153.109 19.8993 153.426 19.33C153.753 18.7607 154.196 18.3173 154.756 18C155.326 17.6733 155.965 17.51 156.674 17.51C157.393 17.51 158.028 17.6687 158.578 17.986C159.129 18.3033 159.558 18.7513 159.866 19.33C160.184 19.8993 160.342 20.5667 160.342 21.332C160.342 21.388 160.338 21.4533 160.328 21.528C160.328 21.6027 160.324 21.6727 160.314 21.738H154V20.772H159.614L159.068 21.108C159.078 20.632 158.98 20.2073 158.774 19.834C158.569 19.4607 158.284 19.1713 157.92 18.966C157.566 18.7513 157.15 18.644 156.674 18.644C156.208 18.644 155.792 18.7513 155.428 18.966C155.064 19.1713 154.78 19.4653 154.574 19.848C154.369 20.2213 154.266 20.6507 154.266 21.136V21.36C154.266 21.8547 154.378 22.298 154.602 22.69C154.836 23.0727 155.158 23.3713 155.568 23.586C155.979 23.8007 156.45 23.908 156.982 23.908C157.421 23.908 157.818 23.8333 158.172 23.684C158.536 23.5347 158.854 23.3107 159.124 23.012L159.866 23.88C159.53 24.272 159.11 24.5707 158.606 24.776C158.112 24.9813 157.556 25.084 156.94 25.084Z" fill="white"/>
</svg>
